<svg width="221" height="222" viewBox="0 0 221 222" fill="none" xmlns="http://www.w3.org/2000/svg">
<path d="M119.459 1.16588C119.749 0.101494 121.297 0.223231 121.417 1.32L128.467 65.3621C128.556 66.172 129.525 66.541 130.13 65.9959L178.016 22.8911C178.836 22.1529 180.072 23.0917 179.58 24.0797L150.887 81.7667C150.524 82.4962 151.14 83.3302 151.944 83.199L215.532 72.826C216.621 72.6484 217.153 74.1062 216.206 74.6717L160.879 107.688C160.18 108.106 160.246 109.14 160.994 109.464L220.096 135.117C221.108 135.556 220.767 137.07 219.664 137.033L155.271 134.897C154.457 134.87 153.954 135.776 154.407 136.453L190.258 189.986C190.872 190.903 189.767 191.992 188.859 191.365L135.843 154.755C135.172 154.292 134.259 154.782 134.275 155.596L135.492 220.014C135.513 221.117 133.994 221.436 133.57 220.418L108.763 160.956C108.449 160.204 107.416 160.123 106.988 160.816L73.1863 215.666C72.6074 216.605 71.1572 216.053 71.3504 214.966L82.6289 151.532C82.7716 150.73 81.9464 150.103 81.2119 150.456L23.1216 178.323C22.1268 178.801 21.2056 177.552 21.9554 176.742L65.7386 129.476C66.2923 128.878 65.9371 127.905 65.1286 127.804L1.19351 119.842C0.0985716 119.705 -0.00110892 118.157 1.06732 117.881L63.4543 101.789C64.2432 101.585 64.4707 100.575 63.845 100.053L14.364 58.7886C13.5166 58.0819 14.27 56.7252 15.3179 57.071L76.5012 77.2624C77.2749 77.5177 78.0128 76.7902 77.7686 76.0129L58.4516 14.548C58.1207 13.4953 59.4881 12.7613 60.1826 13.6187L100.737 63.6829C101.25 64.316 102.264 64.103 102.479 63.3171L119.459 1.16588Z" fill="#FF6400" fill-opacity="0.16"/>
</svg>
